<svg width="18" height="18" viewBox="0 0 18 18" fill="none" xmlns="http://www.w3.org/2000/svg">
<path fill-rule="evenodd" clip-rule="evenodd" d="M6.50008 17.9583H11.5001C16.0251 17.9583 17.9584 16.025 17.9584 11.5V6.49996C17.9584 1.97496 16.0251 0.041626 11.5001 0.041626H6.50008C1.97508 0.041626 0.041748 1.97496 0.041748 6.49996V11.5C0.041748 16.025 1.97508 17.9583 6.50008 17.9583ZM1.29175 6.49996C1.29175 2.65829 2.65841 1.29163 6.50008 1.29163H11.5001C15.3417 1.29163 16.7084 2.65829 16.7084 6.49996V11.5C16.7084 15.3416 15.3417 16.7083 11.5001 16.7083H6.50008C2.65841 16.7083 1.29175 15.3416 1.29175 11.5V6.49996ZM11.5001 10.6583C11.6251 10.7833 11.7834 10.8417 11.9418 10.8417C12.1001 10.8417 12.2584 10.7833 12.3834 10.6583C12.6251 10.4167 12.6251 10.0167 12.3834 9.77502L9.44175 6.83335C9.20008 6.59168 8.80009 6.59168 8.55842 6.83335L5.61675 9.77502C5.37508 10.0167 5.37508 10.4167 5.61675 10.6583C5.85842 10.9 6.25842 10.9 6.50008 10.6583L9.00008 8.15835L11.5001 10.6583Z" fill="#999FA6"/>
</svg>
