<svg width="32" height="32" viewBox="0 0 32 32" fill="none" xmlns="http://www.w3.org/2000/svg">
<path d="M11.88 27.56C11.6267 27.56 11.3734 27.4667 11.1734 27.2667C10.7867 26.88 10.7867 26.24 11.1734 25.8534L19.8667 17.16C20.5067 16.52 20.5067 15.48 19.8667 14.84L11.1734 6.14669C10.7867 5.76003 10.7867 5.12003 11.1734 4.73336C11.56 4.34669 12.2 4.34669 12.5867 4.73336L21.28 13.4267C21.96 14.1067 22.3467 15.0267 22.3467 16C22.3467 16.9734 21.9734 17.8934 21.28 18.5734L12.5867 27.2667C12.3867 27.4534 12.1334 27.56 11.88 27.56Z" fill="#1B1F23"/>
</svg>
