<svg width="16" height="16" viewBox="0 0 16 16" fill="none" xmlns="http://www.w3.org/2000/svg">
<path d="M11.7733 15.1132C11.42 15.1132 10.9667 14.9999 10.4 14.6665L8.40666 13.4865C8.2 13.3665 7.8 13.3665 7.6 13.4865L5.6 14.6665C4.42 15.3665 3.72666 15.0866 3.41333 14.8599C3.10666 14.6332 2.62666 14.0532 2.94 12.7199L3.41333 10.6732C3.46666 10.4599 3.36 10.0932 3.2 9.93322L1.54666 8.27988C0.719997 7.45322 0.786664 6.74655 0.899997 6.39988C1.01333 6.05322 1.37333 5.43988 2.52 5.24655L4.64666 4.89322C4.84666 4.85988 5.13333 4.64655 5.22 4.46655L6.4 2.11322C6.93333 1.03988 7.63333 0.879883 8 0.879883C8.36666 0.879883 9.06666 1.03988 9.6 2.11322L10.7733 4.45988C10.8667 4.63988 11.1533 4.85322 11.3533 4.88655L13.48 5.23988C14.6333 5.43322 14.9933 6.04655 15.1 6.39322C15.2067 6.73988 15.2733 7.44655 14.4533 8.27322L12.8 9.93322C12.64 10.0932 12.54 10.4532 12.5867 10.6732L13.06 12.7199C13.3667 14.0532 12.8933 14.6332 12.5867 14.8599C12.42 14.9799 12.1533 15.1132 11.7733 15.1132Z" fill="#ABABAB"/>
</svg>
