<svg width="20" height="22" viewBox="0 0 20 22" fill="none" xmlns="http://www.w3.org/2000/svg">
<path fill-rule="evenodd" clip-rule="evenodd" d="M4.25 6C4.25 9.17 6.83 11.75 10 11.75C13.17 11.75 15.75 9.17 15.75 6C15.75 2.83 13.17 0.25 10 0.25C6.83 0.25 4.25 2.83 4.25 6ZM5.75 6C5.75 3.66 7.66 1.75 10 1.75C12.34 1.75 14.25 3.66 14.25 6C14.25 8.34 12.34 10.25 10 10.25C7.66 10.25 5.75 8.34 5.75 6ZM17.8401 21C17.8401 21.41 18.1801 21.75 18.5901 21.75C19.0001 21.75 19.3401 21.41 19.3401 21C19.3401 16.73 15.1502 13.25 10.0002 13.25C4.85015 13.25 0.660156 16.73 0.660156 21C0.660156 21.41 1.00016 21.75 1.41016 21.75C1.82016 21.75 2.16016 21.41 2.16016 21C2.16016 17.55 5.68015 14.75 10.0002 14.75C14.3202 14.75 17.8401 17.55 17.8401 21Z" fill="#333333"/>
</svg>
