<svg width="43" height="40" viewBox="0 0 43 40" fill="none" xmlns="http://www.w3.org/2000/svg">
<path fill-rule="evenodd" clip-rule="evenodd" d="M18.1322 4.35932C18.1322 6.7669 20.1085 8.71863 22.5463 8.71863C24.9841 8.71863 26.9603 6.7669 26.9603 4.35932C26.9603 1.95173 24.9841 0 22.5463 0C20.1085 0 18.1322 1.95173 18.1322 4.35932ZM14.1625 12.7784C12.1897 14.7267 8.99109 14.7267 7.01827 12.7784C5.04544 10.8301 5.04544 7.67122 7.01826 5.72292C8.99109 3.77461 12.1897 3.77461 14.1625 5.72292C16.1353 7.67122 16.1353 10.8301 14.1625 12.7784ZM11.2729 21.0597C11.2729 24.1341 8.74938 26.6263 5.63645 26.6263C2.52353 26.6263 0 24.1341 0 21.0597C0 17.9853 2.52353 15.4931 5.63645 15.4931C8.74938 15.4931 11.2729 17.9853 11.2729 21.0597ZM31.8289 11.8953C30.35 10.4347 30.35 8.06661 31.8289 6.60601C33.3078 5.1454 35.7057 5.1454 37.1846 6.60601C38.6636 8.06661 38.6636 10.4347 37.1846 11.8953C35.7057 13.3559 33.3078 13.3559 31.8289 11.8953ZM39.4561 17.5595C37.4988 17.5595 35.9122 19.1266 35.9122 21.0596C35.9122 22.9926 37.4988 24.5596 39.4561 24.5596C41.4133 24.5596 43 22.9926 43 21.0596C43 19.1266 41.4133 17.5595 39.4561 17.5595ZM32.4934 30.8851C33.6023 29.79 35.4003 29.79 36.5092 30.8851C37.6181 31.9802 37.6181 33.7558 36.5092 34.8509C35.4003 35.946 33.6023 35.946 32.4934 34.8509C31.3844 33.7558 31.3844 31.9802 32.4934 30.8851ZM24.8154 37.7594C24.8154 36.522 23.7997 35.5189 22.5467 35.5189C21.2938 35.5189 20.278 36.522 20.278 37.7594C20.278 38.9969 21.2938 40 22.5467 40C23.7997 40 24.8154 38.9969 24.8154 37.7594ZM11.9302 31.5445C12.6704 32.2755 12.6704 33.4607 11.9302 34.1916C11.1901 34.9226 9.99005 34.9226 9.24991 34.1916C8.50976 33.4607 8.50976 32.2755 9.24991 31.5445C9.99005 30.8136 11.1901 30.8136 11.9302 31.5445Z" fill="#999FA6"/>
</svg>
